<svg data-v-423bf9ae="" xmlns="http://www.w3.org/2000/svg" viewBox="0 0 585 90" class="iconLeft"><!----><!----><!----><g data-v-423bf9ae="" id="65fbf52d-2b2a-450b-a3b8-cb59e69b0673" fill="black" transform="matrix(6.408010005950928,0,0,6.408010005950928,88.31007385253906,-7.352941036224365)"><path d="M10.44 4.06L9.16 4.21L9.16 4.21Q9.13 5.10 9.13 6.00L9.13 6.00L9.13 6.00Q9.13 6.90 9.13 7.83L9.13 7.83L9.13 8.51L9.13 8.51Q9.13 9.42 9.13 10.32L9.13 10.32L9.13 10.32Q9.13 11.21 9.16 12.12L9.16 12.12L10.44 12.28L10.44 12.85L6.50 12.85L6.50 12.28L7.78 12.12L7.78 12.12Q7.81 11.26 7.81 10.35L7.81 10.35L7.81 10.35Q7.81 9.44 7.81 8.39L7.81 8.39L3.25 8.39L3.25 8.39Q3.25 9.42 3.25 10.33L3.25 10.33L3.25 10.33Q3.25 11.24 3.28 12.12L3.28 12.12L4.58 12.28L4.58 12.85L0.62 12.85L0.62 12.28L1.90 12.12L1.90 12.12Q1.93 11.24 1.93 10.34L1.93 10.34L1.93 10.34Q1.93 9.44 1.93 8.51L1.93 8.51L1.93 7.83L1.93 7.83Q1.93 6.92 1.93 6.02L1.93 6.02L1.93 6.02Q1.93 5.12 1.90 4.21L1.90 4.21L0.62 4.06L0.62 3.49L4.58 3.49L4.58 4.06L3.28 4.21L3.28 4.21Q3.25 5.08 3.25 5.96L3.25 5.96L3.25 5.96Q3.25 6.83 3.25 7.73L3.25 7.73L7.81 7.73L7.81 7.73Q7.81 6.85 7.81 5.97L7.81 5.97L7.81 5.97Q7.81 5.10 7.78 4.21L7.78 4.21L6.50 4.06L6.50 3.49L10.44 3.49L10.44 4.06ZM18.23 10.36L19.03 10.36L18.93 12.85L11.68 12.85L11.68 12.28L12.96 12.12L12.96 12.12Q12.99 11.24 12.99 10.34L12.99 10.34L12.99 10.34Q12.99 9.44 12.99 8.51L12.99 8.51L12.99 7.83L12.99 7.83Q12.99 6.92 12.99 6.02L12.99 6.02L12.99 6.02Q12.99 5.12 12.96 4.21L12.96 4.21L11.68 4.06L11.68 3.49L18.65 3.49L18.75 5.98L17.95 5.98L17.64 4.20L14.34 4.20L14.34 4.20Q14.31 5.08 14.31 5.96L14.31 5.96L14.31 5.96Q14.31 6.85 14.31 7.74L14.31 7.74L16.39 7.74L16.59 6.40L17.22 6.40L17.22 9.72L16.59 9.72L16.41 8.40L14.31 8.40L14.31 8.40Q14.31 9.41 14.31 10.32L14.31 10.32L14.31 10.32Q14.31 11.24 14.34 12.15L14.34 12.15L17.92 12.15L18.23 10.36ZM22.46 9.14L25.23 9.14L23.86 5.10L22.46 9.14ZM27.62 12.15L28.67 12.28L28.67 12.85L24.86 12.85L24.86 12.28L26.24 12.11L25.45 9.80L22.23 9.80L21.45 12.10L22.81 12.28L22.81 12.85L19.59 12.85L19.59 12.28L20.78 12.10L23.77 3.49L24.61 3.49L27.62 12.15ZM35.55 10.22L36.41 10.22L36.27 12.85L29.29 12.85L29.29 12.28L30.58 12.12L30.58 12.12Q30.60 11.21 30.60 10.32L30.60 10.32L30.60 10.32Q30.60 9.42 30.60 8.51L30.60 8.51L30.60 7.83L30.60 7.83Q30.60 6.90 30.60 6.00L30.60 6.00L30.60 6.00Q30.60 5.10 30.58 4.21L30.58 4.21L29.29 4.06L29.29 3.49L33.25 3.49L33.25 4.06L31.95 4.21L31.95 4.21Q31.92 5.12 31.92 6.02L31.92 6.02L31.92 6.02Q31.92 6.92 31.92 7.83L31.92 7.83L31.92 8.51L31.92 8.51Q31.92 9.44 31.92 10.35L31.92 10.35L31.92 10.35Q31.92 11.26 31.95 12.15L31.95 12.15L35.14 12.15L35.55 10.22ZM42.95 4.20L40.81 4.20L40.81 4.20Q40.78 5.10 40.78 6.00L40.78 6.00L40.78 6.00Q40.78 6.90 40.78 7.83L40.78 7.83L40.78 8.51L40.78 8.51Q40.78 9.42 40.78 10.32L40.78 10.32L40.78 10.32Q40.78 11.21 40.81 12.12L40.81 12.12L42.24 12.28L42.24 12.85L38.00 12.85L38.00 12.28L39.42 12.12L39.42 12.12Q39.45 11.24 39.45 10.34L39.45 10.34L39.45 10.34Q39.45 9.44 39.45 8.51L39.45 8.51L39.45 7.83L39.45 7.83Q39.45 6.92 39.45 6.01L39.45 6.01L39.45 6.01Q39.45 5.11 39.42 4.20L39.42 4.20L37.28 4.20L36.97 5.99L36.16 5.99L36.27 3.49L43.97 3.49L44.07 5.99L43.27 5.99L42.95 4.20ZM54.80 4.06L53.51 4.21L53.51 4.21Q53.48 5.10 53.48 6.00L53.48 6.00L53.48 6.00Q53.48 6.90 53.48 7.83L53.48 7.83L53.48 8.51L53.48 8.51Q53.48 9.42 53.48 10.32L53.48 10.32L53.48 10.32Q53.48 11.21 53.51 12.12L53.51 12.12L54.80 12.28L54.80 12.85L50.85 12.85L50.85 12.28L52.14 12.12L52.14 12.12Q52.16 11.26 52.16 10.35L52.16 10.35L52.16 10.35Q52.16 9.44 52.16 8.39L52.16 8.39L47.60 8.39L47.60 8.39Q47.60 9.42 47.60 10.33L47.60 10.33L47.60 10.33Q47.60 11.24 47.63 12.12L47.63 12.12L48.93 12.28L48.93 12.85L44.97 12.85L44.97 12.28L46.26 12.12L46.26 12.12Q46.28 11.24 46.28 10.34L46.28 10.34L46.28 10.34Q46.28 9.44 46.28 8.51L46.28 8.51L46.28 7.83L46.28 7.83Q46.28 6.92 46.28 6.02L46.28 6.02L46.28 6.02Q46.28 5.12 46.26 4.21L46.26 4.21L44.97 4.06L44.97 3.49L48.93 3.49L48.93 4.06L47.63 4.21L47.63 4.21Q47.60 5.08 47.60 5.96L47.60 5.96L47.60 5.96Q47.60 6.83 47.60 7.73L47.60 7.73L52.16 7.73L52.16 7.73Q52.16 6.85 52.16 5.97L52.16 5.97L52.16 5.97Q52.16 5.10 52.14 4.21L52.14 4.21L50.85 4.06L50.85 3.49L54.80 3.49L54.80 4.06ZM59.99 4.06L58.69 4.21L58.69 4.21Q58.66 5.10 58.66 6.00L58.66 6.00L58.66 6.00Q58.66 6.90 58.66 7.83L58.66 7.83L58.66 8.51L58.66 8.51Q58.66 9.42 58.66 10.32L58.66 10.32L58.66 10.32Q58.66 11.21 58.69 12.12L58.69 12.12L59.99 12.28L59.99 12.85L56.03 12.85L56.03 12.28L57.32 12.12L57.32 12.12Q57.34 11.24 57.34 10.34L57.34 10.34L57.34 10.34Q57.34 9.44 57.34 8.51L57.34 8.51L57.34 7.83L57.34 7.83Q57.34 6.92 57.34 6.02L57.34 6.02L57.34 6.02Q57.34 5.12 57.32 4.21L57.32 4.21L56.03 4.06L56.03 3.49L59.99 3.49L59.99 4.06ZM67.17 4.20L63.87 4.20L63.87 4.20Q63.84 5.08 63.84 5.96L63.84 5.96L63.84 5.96Q63.84 6.85 63.84 7.74L63.84 7.74L66.02 7.74L66.22 6.40L66.86 6.40L66.86 9.86L66.22 9.86L66.02 8.40L63.84 8.40L63.84 8.40Q63.84 9.39 63.84 10.31L63.84 10.31L63.84 10.31Q63.84 11.23 63.87 12.12L63.87 12.12L65.17 12.28L65.17 12.85L61.21 12.85L61.21 12.28L62.50 12.12L62.50 12.12Q62.52 11.24 62.52 10.34L62.52 10.34L62.52 10.34Q62.52 9.44 62.52 8.51L62.52 8.51L62.52 7.83L62.52 7.83Q62.52 6.92 62.52 6.02L62.52 6.02L62.52 6.02Q62.52 5.12 62.50 4.21L62.50 4.21L61.21 4.06L61.21 3.49L68.18 3.49L68.28 5.98L67.48 5.98L67.17 4.20ZM76.17 4.24L73.79 9.14L73.79 9.58L73.79 9.58Q73.79 10.02 73.79 10.70L73.79 10.70L73.79 10.70Q73.79 11.37 73.82 12.12L73.82 12.12L75.25 12.28L75.25 12.85L71.02 12.85L71.02 12.28L72.45 12.12L72.45 12.12Q72.48 11.37 72.48 10.70L72.48 10.70L72.48 10.70Q72.48 10.02 72.48 9.58L72.48 9.58L72.48 9.21L70 4.19L68.89 4.06L68.89 3.49L72.84 3.49L72.84 4.06L71.51 4.21L73.46 8.44L75.46 4.23L74.20 4.06L74.20 3.49L77.39 3.49L77.39 4.06L76.17 4.24Z"></path></g><!----><g data-v-423bf9ae="" id="752a9ca1-dd9c-4c32-8efc-f32967821381" transform="matrix(2.8125,0,0,2.8125,-8.8515625,0)" stroke="none" fill="black"><path d="M16 8.204l7.065 3.915v7.761L16 23.796 8.935 19.88v-7.76L16 8.204m0-1.143l-8.065 4.47v8.939L16 24.939l8.065-4.47V11.53L16 7.061zM27.85 1v3.356H4.15V1h23.7m1-1H3.15v5.356h25.7V0zM27.85 27.644V31H4.15v-3.356h23.7m1-1H3.15V32h25.7v-5.356z"></path></g><!----></svg>